# xmcd CD database file
#
# Track frame offsets:
#	150
#	33750
#	59997
#	84398
#	112127
#	145205
#
# Disc length: 2325 seconds
#
# Revision: 0
# Processed by: cddbd v1.5.2PL0 Copyright (c) Steve Scherf et al.
# Submitted via: CDex 1.51
#
DISCID=53091306
DTITLE=Grover Washington - Winelight
DYEAR=1900
DGENRE=Jazz
TTITLE0=Winelight
TTITLE1=Let It Flow (For Dr. J)
TTITLE2=In The Name of Love
TTITLE3=Take Me There
TTITLE4=Just the Two of Us
TTITLE5=Make Me A Memory (Sad Samba)
EXTD=
EXTT0=
EXTT1=
EXTT2=
EXTT3=
EXTT4=
EXTT5=
PLAYORDER=
